<?xml version="1.0" encoding="utf-8"?>
<!-- Generator: Adobe Illustrator 16.0.0, SVG Export Plug-In . SVG Version: 6.00 Build 0)  -->
<!DOCTYPE svg PUBLIC "-//W3C//DTD SVG 1.1//EN" "http://www.w3.org/Graphics/SVG/1.1/DTD/svg11.dtd">
<svg version="1.1" id="圖層_1" xmlns="http://www.w3.org/2000/svg" xmlns:xlink="http://www.w3.org/1999/xlink" x="0px" y="0px"
	 width="52.018px" height="60px" viewBox="0 0 52.018 60" enable-background="new 0 0 52.018 60" xml:space="preserve">
<g>
	<defs>
		<polygon id="SVGID_1_" points="26.011,60 0,45.002 0,15.002 26.011,0 52.018,15.002 52.018,45.002 26.011,60 		"/>
	</defs>
	<defs>
		<path id="SVGID_2_" d="M30.574,40.277c-0.348,0.352-1.885,0.352-2.229,0L18.124,29.924c-0.344-0.352-0.274-1.838,0.07-2.189
			c0.348-0.352,1.815-0.42,2.159-0.068L30.574,38.02C30.918,38.371,30.918,39.926,30.574,40.277L30.574,40.277z M30.574,20.412
			L20.353,30.77c-0.344,0.348-1.812,0.277-2.159-0.074c-0.344-0.348-0.414-1.838-0.07-2.186l10.222-10.355
			c0.344-0.348,1.881-0.348,2.229,0C30.918,18.504,30.918,20.061,30.574,20.412L30.574,20.412z"/>
	</defs>
	<use xlink:href="#SVGID_1_"  overflow="visible" fill="#ECCD00"/>
	<use xlink:href="#SVGID_2_"  overflow="visible" fill="#FFFFFF"/>
	<clipPath id="SVGID_3_">
		<use xlink:href="#SVGID_1_"  overflow="visible"/>
	</clipPath>
	<clipPath id="SVGID_4_" clip-path="url(#SVGID_3_)">
		<use xlink:href="#SVGID_2_"  overflow="visible"/>
	</clipPath>
</g>
</svg>
