<?xml version="1.0" encoding="utf-8"?>
<!-- Generator: Adobe Illustrator 16.0.0, SVG Export Plug-In . SVG Version: 6.00 Build 0)  -->
<!DOCTYPE svg PUBLIC "-//W3C//DTD SVG 1.1//EN" "http://www.w3.org/Graphics/SVG/1.1/DTD/svg11.dtd">
<svg version="1.1" id="圖層_1" xmlns="http://www.w3.org/2000/svg" xmlns:xlink="http://www.w3.org/1999/xlink" x="0px" y="0px"
	 width="283.72px" height="174.612px" viewBox="0 0 283.72 174.612" enable-background="new 0 0 283.72 174.612"
	 xml:space="preserve">
<g>
	<defs>
		<polygon id="SVGID_1_" points="180.003,19.374 141.869,47.783 102.654,19.374 141.869,56.487 		"/>
	</defs>
	<clipPath id="SVGID_2_">
		<use xlink:href="#SVGID_1_"  overflow="visible"/>
	</clipPath>
	
		<linearGradient id="SVGID_3_" gradientUnits="userSpaceOnUse" x1="9.765625e-004" y1="174.6118" x2="1.001" y2="174.6118" gradientTransform="matrix(77.3488 0 0 -77.3488 102.625 13543.9395)">
		<stop  offset="0" style="stop-color:#E3DC25"/>
		<stop  offset="0.3703" style="stop-color:#F5D22F"/>
		<stop  offset="0.7579" style="stop-color:#D0A315"/>
		<stop  offset="1" style="stop-color:#D0860F"/>
	</linearGradient>
	<rect x="102.654" y="19.374" clip-path="url(#SVGID_2_)" fill="url(#SVGID_3_)" width="77.349" height="37.113"/>
</g>
<g>
	<defs>
		<path id="SVGID_4_" d="M181.651,38.141l-2.126,1.649l-37.67,29.214l-37.67-29.214l-2.126-1.649L53.029,0.117L93.51,35.786
			l-9.063,6.752l-29.718-21.53l29.718,28.126l12.627-10.256l1.848,1.601l2.408,2.089l15.593,13.52L96.768,72.474l0.014,0.011
			l-0.013,0.011h0.023l17.044,15.239l-11.96-14.952l18.021-14.085l21.943,18.996v0.026l0.015-0.013l0.015,0.013v-0.026L163.929,58.6
			l18.022,14.086l-12.077,15.049l17.043-15.239h0.024l-0.014-0.011l0.015-0.011l-20.156-16.386l15.593-13.52l2.409-2.089
			l1.848-1.601l12.627,10.256l29.719-28.126l-29.719,21.53l-9.063-6.752l40.624-35.743l-0.015-0.027L181.651,38.141z M52.896-0.001
			l0.002,0.017l0.131,0.101L52.896-0.001z"/>
	</defs>
	<clipPath id="SVGID_5_">
		<use xlink:href="#SVGID_4_"  overflow="visible"/>
	</clipPath>
	
		<linearGradient id="SVGID_6_" gradientUnits="userSpaceOnUse" x1="4.882813e-004" y1="174.6118" x2="1.0005" y2="174.6118" gradientTransform="matrix(177.9278 0 0 -177.9278 52.875 31112.1563)">
		<stop  offset="0" style="stop-color:#E3DC25"/>
		<stop  offset="0.3703" style="stop-color:#F5D22F"/>
		<stop  offset="0.7579" style="stop-color:#D0A315"/>
		<stop  offset="1" style="stop-color:#D0860F"/>
	</linearGradient>
	<rect x="52.896" y="-0.001" clip-path="url(#SVGID_5_)" fill="url(#SVGID_6_)" width="177.928" height="87.736"/>
</g>
<g>
	<defs>
		<polygon id="SVGID_7_" points="121.098,75.298 141.869,100.114 161.56,75.298 141.869,91.41 		"/>
	</defs>
	<clipPath id="SVGID_8_">
		<use xlink:href="#SVGID_7_"  overflow="visible"/>
	</clipPath>
	
		<linearGradient id="SVGID_9_" gradientUnits="userSpaceOnUse" x1="4.882813e-004" y1="174.6118" x2="1.0005" y2="174.6118" gradientTransform="matrix(40.461 0 0 -40.461 121.0938 7152.6738)">
		<stop  offset="0" style="stop-color:#E3DC25"/>
		<stop  offset="0.3703" style="stop-color:#F5D22F"/>
		<stop  offset="0.7579" style="stop-color:#D0A315"/>
		<stop  offset="1" style="stop-color:#D0860F"/>
	</linearGradient>
	<rect x="121.098" y="75.298" clip-path="url(#SVGID_8_)" fill="url(#SVGID_9_)" width="40.461" height="24.816"/>
</g>
<g>
	<defs>
		<polygon id="SVGID_10_" points="121.098,97.681 141.869,122.498 161.56,97.681 141.869,113.793 		"/>
	</defs>
	<clipPath id="SVGID_11_">
		<use xlink:href="#SVGID_10_"  overflow="visible"/>
	</clipPath>
	
		<linearGradient id="SVGID_12_" gradientUnits="userSpaceOnUse" x1="4.882813e-004" y1="174.6128" x2="1.0005" y2="174.6128" gradientTransform="matrix(40.461 0 0 -40.461 121.0938 7175.0488)">
		<stop  offset="0" style="stop-color:#E3DC25"/>
		<stop  offset="0.3703" style="stop-color:#F5D22F"/>
		<stop  offset="0.7579" style="stop-color:#D0A315"/>
		<stop  offset="1" style="stop-color:#D0860F"/>
	</linearGradient>
	<rect x="121.098" y="97.681" clip-path="url(#SVGID_11_)" fill="url(#SVGID_12_)" width="40.461" height="24.816"/>
</g>
<g>
	<defs>
		<path id="SVGID_13_" d="M156.119,18.802c-0.02,0.102-14.404,7.521-14.364,7.521c-0.04,0-14.51-7.503-14.37-7.518
			c-0.068,0-1.344-17.543-1.313-17.642c-0.031,0.099-1.39,18.963-1.39,18.963l17.071,13.213l17.079-13.211
			c0,0-1.4-18.891-1.396-18.965C157.376,1.18,156.134,18.831,156.119,18.802"/>
	</defs>
	<clipPath id="SVGID_14_">
		<use xlink:href="#SVGID_13_"  overflow="visible"/>
	</clipPath>
	
		<linearGradient id="SVGID_15_" gradientUnits="userSpaceOnUse" x1="-4.882813e-004" y1="174.6108" x2="0.9995" y2="174.6108" gradientTransform="matrix(34.1513 0 0 -34.1513 124.6875 5980.457)">
		<stop  offset="0" style="stop-color:#E3DC25"/>
		<stop  offset="0.3703" style="stop-color:#F5D22F"/>
		<stop  offset="0.7579" style="stop-color:#D0A315"/>
		<stop  offset="1" style="stop-color:#D0860F"/>
	</linearGradient>
	<rect x="124.682" y="1.163" clip-path="url(#SVGID_14_)" fill="url(#SVGID_15_)" width="34.15" height="32.176"/>
</g>
<g>
	<defs>
		<polygon id="SVGID_16_" points="235.058,154.114 235.058,172.536 239.089,170.002 239.089,154.114 		"/>
	</defs>
	<clipPath id="SVGID_17_">
		<use xlink:href="#SVGID_16_"  overflow="visible"/>
	</clipPath>
	
		<linearGradient id="SVGID_18_" gradientUnits="userSpaceOnUse" x1="0" y1="174.6118" x2="1" y2="174.6118" gradientTransform="matrix(273.3522 0 0 -273.3522 9.5 47893.8945)">
		<stop  offset="0" style="stop-color:#E3DC25"/>
		<stop  offset="0.3703" style="stop-color:#F5D22F"/>
		<stop  offset="0.7579" style="stop-color:#D0A315"/>
		<stop  offset="1" style="stop-color:#D0860F"/>
	</linearGradient>
	<rect x="235.058" y="154.114" clip-path="url(#SVGID_17_)" fill="url(#SVGID_18_)" width="4.031" height="18.422"/>
</g>
<g>
	<defs>
		<polygon id="SVGID_19_" points="78.706,156.275 78.706,156.706 78.706,167.688 78.706,169.944 78.706,170.248 78.706,170.25 
			85.923,173.23 93.147,170.248 93.14,167.688 85.923,170.616 82.736,169.324 82.736,157.201 85.93,155.906 93.147,158.833 
			93.147,156.272 85.929,153.292 		"/>
	</defs>
	<clipPath id="SVGID_20_">
		<use xlink:href="#SVGID_19_"  overflow="visible"/>
	</clipPath>
	
		<linearGradient id="SVGID_21_" gradientUnits="userSpaceOnUse" x1="0" y1="174.6118" x2="1" y2="174.6118" gradientTransform="matrix(273.3492 0 0 -273.3492 9.5 47893.3711)">
		<stop  offset="0" style="stop-color:#E3DC25"/>
		<stop  offset="0.3703" style="stop-color:#F5D22F"/>
		<stop  offset="0.7579" style="stop-color:#D0A315"/>
		<stop  offset="1" style="stop-color:#D0860F"/>
	</linearGradient>
	<rect x="78.706" y="153.292" clip-path="url(#SVGID_20_)" fill="url(#SVGID_21_)" width="14.441" height="19.938"/>
</g>
<g>
	<defs>
		<polygon id="SVGID_22_" points="163.334,156.275 163.335,156.706 163.334,156.706 163.334,170.002 167.366,172.536 
			167.366,157.201 170.559,155.906 174.966,157.695 174.966,162.889 170.552,164.712 170.56,167.273 177.775,164.345 
			177.775,163.951 177.775,161.73 177.775,158.833 177.775,156.275 177.775,156.272 170.558,153.292 		"/>
	</defs>
	<clipPath id="SVGID_23_">
		<use xlink:href="#SVGID_22_"  overflow="visible"/>
	</clipPath>
	
		<linearGradient id="SVGID_24_" gradientUnits="userSpaceOnUse" x1="0" y1="174.6118" x2="1" y2="174.6118" gradientTransform="matrix(273.3481 0 0 -273.3481 9.5 47892.6758)">
		<stop  offset="0" style="stop-color:#E3DC25"/>
		<stop  offset="0.3703" style="stop-color:#F5D22F"/>
		<stop  offset="0.7579" style="stop-color:#D0A315"/>
		<stop  offset="1" style="stop-color:#D0860F"/>
	</linearGradient>
	<rect x="163.334" y="153.292" clip-path="url(#SVGID_23_)" fill="url(#SVGID_24_)" width="14.441" height="19.244"/>
</g>
<g>
	<defs>
		<path id="SVGID_25_" d="M108.472,169.324v-12.123l3.193-1.295l3.186,1.293v12.122l-3.193,1.295L108.472,169.324z M104.441,156.275
			v0.431v10.982v2.256v0.307l7.217,2.979l7.224-2.982l-0.001-0.304h0.001v-11.11v-2.128v-0.434l-7.218-2.98L104.441,156.275z"/>
	</defs>
	<clipPath id="SVGID_26_">
		<use xlink:href="#SVGID_25_"  overflow="visible"/>
	</clipPath>
	
		<linearGradient id="SVGID_27_" gradientUnits="userSpaceOnUse" x1="0" y1="174.6128" x2="1" y2="174.6128" gradientTransform="matrix(273.3483 0 0 -273.3483 9.5 47893.1992)">
		<stop  offset="0" style="stop-color:#E3DC25"/>
		<stop  offset="0.3703" style="stop-color:#F5D22F"/>
		<stop  offset="0.7579" style="stop-color:#D0A315"/>
		<stop  offset="1" style="stop-color:#D0860F"/>
	</linearGradient>
	<rect x="104.441" y="153.292" clip-path="url(#SVGID_26_)" fill="url(#SVGID_27_)" width="14.441" height="19.938"/>
</g>
<g>
	<defs>
		<polygon id="SVGID_28_" points="198.527,154.114 197.305,154.114 197.305,169.321 194.111,170.616 190.925,169.324 
			190.925,154.114 189.703,154.114 186.895,154.114 186.895,167.688 186.895,169.596 186.895,170.248 186.895,170.25 
			194.111,173.23 201.336,170.248 201.336,169.596 201.336,154.114 		"/>
	</defs>
	<clipPath id="SVGID_29_">
		<use xlink:href="#SVGID_28_"  overflow="visible"/>
	</clipPath>
	
		<linearGradient id="SVGID_30_" gradientUnits="userSpaceOnUse" x1="0" y1="174.6118" x2="1" y2="174.6118" gradientTransform="matrix(273.3483 0 0 -273.3483 9.5 47893.4492)">
		<stop  offset="0" style="stop-color:#E3DC25"/>
		<stop  offset="0.3703" style="stop-color:#F5D22F"/>
		<stop  offset="0.7579" style="stop-color:#D0A315"/>
		<stop  offset="1" style="stop-color:#D0860F"/>
	</linearGradient>
	<rect x="186.895" y="154.114" clip-path="url(#SVGID_29_)" fill="url(#SVGID_30_)" width="14.441" height="19.116"/>
</g>
<g>
	<defs>
		<polygon id="SVGID_31_" points="247.616,156.275 247.618,156.982 247.616,156.982 247.616,172.57 251.647,170.018 
			251.647,157.201 254.841,155.906 258.026,157.199 258.026,170.018 262.057,172.57 262.057,158.833 262.057,156.982 
			262.057,156.272 254.84,153.292 		"/>
	</defs>
	<clipPath id="SVGID_32_">
		<use xlink:href="#SVGID_31_"  overflow="visible"/>
	</clipPath>
	
		<linearGradient id="SVGID_33_" gradientUnits="userSpaceOnUse" x1="0" y1="174.6118" x2="1" y2="174.6118" gradientTransform="matrix(273.3483 0 0 -273.3483 9.5 47892.6992)">
		<stop  offset="0" style="stop-color:#E3DC25"/>
		<stop  offset="0.3703" style="stop-color:#F5D22F"/>
		<stop  offset="0.7579" style="stop-color:#D0A315"/>
		<stop  offset="1" style="stop-color:#D0860F"/>
	</linearGradient>
	<rect x="247.616" y="153.292" clip-path="url(#SVGID_32_)" fill="url(#SVGID_33_)" width="14.44" height="19.278"/>
</g>
<g>
	<defs>
		<polygon id="SVGID_34_" points="219.177,156.221 209.968,153.292 209.968,155.855 217.166,158.186 217.166,172.536 
			221.197,170.002 221.197,158.178 228.396,155.852 228.386,153.292 		"/>
	</defs>
	<clipPath id="SVGID_35_">
		<use xlink:href="#SVGID_34_"  overflow="visible"/>
	</clipPath>
	
		<linearGradient id="SVGID_36_" gradientUnits="userSpaceOnUse" x1="0" y1="174.6108" x2="1" y2="174.6108" gradientTransform="matrix(273.3489 0 0 -273.3489 9.5 47892.8164)">
		<stop  offset="0" style="stop-color:#E3DC25"/>
		<stop  offset="0.3703" style="stop-color:#F5D22F"/>
		<stop  offset="0.7579" style="stop-color:#D0A315"/>
		<stop  offset="1" style="stop-color:#D0860F"/>
	</linearGradient>
	<rect x="209.968" y="153.292" clip-path="url(#SVGID_35_)" fill="url(#SVGID_36_)" width="18.428" height="19.244"/>
</g>
<g>
	<defs>
		<polygon id="SVGID_37_" points="269.278,156.275 269.279,156.613 269.278,156.613 269.278,156.982 269.278,167.688 
			269.278,169.666 269.278,170.157 269.278,170.25 276.496,173.23 283.72,170.248 283.72,161.464 276.496,164.447 276.504,167.006 
			281.023,165.172 281.023,168.779 276.495,170.616 273.309,169.324 273.309,157.201 276.503,155.906 283.72,158.833 
			283.72,156.272 276.503,153.292 		"/>
	</defs>
	<clipPath id="SVGID_38_">
		<use xlink:href="#SVGID_37_"  overflow="visible"/>
	</clipPath>
	
		<linearGradient id="SVGID_39_" gradientUnits="userSpaceOnUse" x1="0" y1="174.6128" x2="1" y2="174.6128" gradientTransform="matrix(273.3483 0 0 -273.3483 9.5 47893.1992)">
		<stop  offset="0" style="stop-color:#E3DC25"/>
		<stop  offset="0.3703" style="stop-color:#F5D22F"/>
		<stop  offset="0.7579" style="stop-color:#D0A315"/>
		<stop  offset="1" style="stop-color:#D0860F"/>
	</linearGradient>
	<rect x="269.278" y="153.292" clip-path="url(#SVGID_38_)" fill="url(#SVGID_39_)" width="14.441" height="19.938"/>
</g>
<g>
	<defs>
		<polygon id="SVGID_40_" points="140.759,158.961 129.721,153.292 140.759,162.864 151.222,153.292 		"/>
	</defs>
	<clipPath id="SVGID_41_">
		<use xlink:href="#SVGID_40_"  overflow="visible"/>
	</clipPath>
	
		<linearGradient id="SVGID_42_" gradientUnits="userSpaceOnUse" x1="0" y1="174.6118" x2="1" y2="174.6118" gradientTransform="matrix(273.3484 0 0 -273.3484 9.5 47887.9648)">
		<stop  offset="0" style="stop-color:#E3DC25"/>
		<stop  offset="0.3703" style="stop-color:#F5D22F"/>
		<stop  offset="0.7579" style="stop-color:#D0A315"/>
		<stop  offset="1" style="stop-color:#D0860F"/>
	</linearGradient>
	<rect x="129.721" y="153.292" clip-path="url(#SVGID_41_)" fill="url(#SVGID_42_)" width="21.5" height="9.572"/>
</g>
<g>
	<defs>
		<polygon id="SVGID_43_" points="152.058,156.684 140.781,166.144 129.183,156.92 128.317,156.195 128.317,156.706 
			128.317,170.002 132.348,172.536 132.348,162.348 140.781,169.509 148.595,162.373 148.595,172.536 152.626,170.002 
			152.626,156.706 152.626,156.184 		"/>
	</defs>
	<clipPath id="SVGID_44_">
		<use xlink:href="#SVGID_43_"  overflow="visible"/>
	</clipPath>
	
		<linearGradient id="SVGID_45_" gradientUnits="userSpaceOnUse" x1="0" y1="174.6118" x2="1" y2="174.6118" gradientTransform="matrix(273.3486 0 0 -273.3486 9.5 47894.2578)">
		<stop  offset="0" style="stop-color:#E3DC25"/>
		<stop  offset="0.3703" style="stop-color:#F5D22F"/>
		<stop  offset="0.7579" style="stop-color:#D0A315"/>
		<stop  offset="1" style="stop-color:#D0860F"/>
	</linearGradient>
	<rect x="128.317" y="156.184" clip-path="url(#SVGID_44_)" fill="url(#SVGID_45_)" width="24.309" height="16.352"/>
</g>
<g>
	<defs>
		<path id="SVGID_46_" d="M4.006,169.783h0.025v-12.582l3.193-1.295l4.408,1.789v3.33l-4.414,1.822l-0.609,0.232l0.609,0.282
			l4.414,1.822v4.116l-4.408,1.788L4.006,169.783z M0,156.275l0.001,0.431H0v13.077h0.003L0,170.72l7.223,2.982l7.218-2.979v-0.003
			v-2.56v-1.243v-1.319v-0.394l-5.328-2.162l5.328-2.162v-0.393v-1.32v-0.334v-2.559v-0.003l-7.218-2.98L0,156.275z"/>
	</defs>
	<clipPath id="SVGID_47_">
		<use xlink:href="#SVGID_46_"  overflow="visible"/>
	</clipPath>
	
		<linearGradient id="SVGID_48_" gradientUnits="userSpaceOnUse" x1="0" y1="174.6118" x2="1" y2="174.6118" gradientTransform="matrix(273.3493 0 0 -273.3493 9.5 47893.6367)">
		<stop  offset="0" style="stop-color:#E3DC25"/>
		<stop  offset="0.3703" style="stop-color:#F5D22F"/>
		<stop  offset="0.7579" style="stop-color:#D0A315"/>
		<stop  offset="1" style="stop-color:#D0860F"/>
	</linearGradient>
	<rect y="153.292" clip-path="url(#SVGID_47_)" fill="url(#SVGID_48_)" width="14.441" height="20.411"/>
</g>
<g>
	<defs>
		<polygon id="SVGID_49_" points="29.993,171.079 22.777,168.151 22.77,170.709 29.993,173.693 37.211,170.712 37.211,168.151 		"/>
	</defs>
	<clipPath id="SVGID_50_">
		<use xlink:href="#SVGID_49_"  overflow="visible"/>
	</clipPath>
	
		<linearGradient id="SVGID_51_" gradientUnits="userSpaceOnUse" x1="0" y1="174.6118" x2="1" y2="174.6118" gradientTransform="matrix(273.3492 0 0 -273.3492 9.5 47900.8711)">
		<stop  offset="0" style="stop-color:#E3DC25"/>
		<stop  offset="0.3703" style="stop-color:#F5D22F"/>
		<stop  offset="0.7579" style="stop-color:#D0A315"/>
		<stop  offset="1" style="stop-color:#D0860F"/>
	</linearGradient>
	<rect x="22.77" y="168.151" clip-path="url(#SVGID_50_)" fill="url(#SVGID_51_)" width="14.441" height="5.542"/>
</g>
<g>
	<defs>
		<polygon id="SVGID_52_" points="29.993,163.668 22.777,160.741 22.77,163.301 29.993,166.283 37.211,163.303 37.211,160.741 		"/>
	</defs>
	<clipPath id="SVGID_53_">
		<use xlink:href="#SVGID_52_"  overflow="visible"/>
	</clipPath>
	
		<linearGradient id="SVGID_54_" gradientUnits="userSpaceOnUse" x1="0" y1="174.6118" x2="1" y2="174.6118" gradientTransform="matrix(273.3492 0 0 -273.3492 9.5 47893.6211)">
		<stop  offset="0" style="stop-color:#E3DC25"/>
		<stop  offset="0.3703" style="stop-color:#F5D22F"/>
		<stop  offset="0.7579" style="stop-color:#D0A315"/>
		<stop  offset="1" style="stop-color:#D0860F"/>
	</linearGradient>
	<rect x="22.77" y="160.741" clip-path="url(#SVGID_53_)" fill="url(#SVGID_54_)" width="14.441" height="5.542"/>
</g>
<g>
	<defs>
		<polygon id="SVGID_55_" points="29.993,156.8 22.777,153.872 22.77,156.432 29.993,159.415 37.211,156.435 37.211,153.872 		"/>
	</defs>
	<clipPath id="SVGID_56_">
		<use xlink:href="#SVGID_55_"  overflow="visible"/>
	</clipPath>
	
		<linearGradient id="SVGID_57_" gradientUnits="userSpaceOnUse" x1="0" y1="174.6118" x2="1" y2="174.6118" gradientTransform="matrix(273.3492 0 0 -273.3492 9.5 47886.6211)">
		<stop  offset="0" style="stop-color:#E3DC25"/>
		<stop  offset="0.3703" style="stop-color:#F5D22F"/>
		<stop  offset="0.7579" style="stop-color:#D0A315"/>
		<stop  offset="1" style="stop-color:#D0860F"/>
	</linearGradient>
	<rect x="22.77" y="153.872" clip-path="url(#SVGID_56_)" fill="url(#SVGID_57_)" width="14.441" height="5.543"/>
</g>
<g>
	<defs>
		<polygon id="SVGID_58_" points="53.145,171.997 45.928,169.07 45.921,171.628 53.145,174.612 60.362,171.631 60.362,169.07 		"/>
	</defs>
	<clipPath id="SVGID_59_">
		<use xlink:href="#SVGID_58_"  overflow="visible"/>
	</clipPath>
	
		<linearGradient id="SVGID_60_" gradientUnits="userSpaceOnUse" x1="0" y1="174.6118" x2="1" y2="174.6118" gradientTransform="matrix(273.3483 0 0 -273.3483 9.5 47901.6992)">
		<stop  offset="0" style="stop-color:#E3DC25"/>
		<stop  offset="0.3703" style="stop-color:#F5D22F"/>
		<stop  offset="0.7579" style="stop-color:#D0A315"/>
		<stop  offset="1" style="stop-color:#D0860F"/>
	</linearGradient>
	<rect x="45.921" y="169.07" clip-path="url(#SVGID_59_)" fill="url(#SVGID_60_)" width="14.441" height="5.542"/>
</g>
<g>
	<defs>
		<polygon id="SVGID_61_" points="53.145,164.221 45.928,161.292 45.921,163.852 53.145,166.833 60.362,163.854 60.362,161.292 		
			"/>
	</defs>
	<clipPath id="SVGID_62_">
		<use xlink:href="#SVGID_61_"  overflow="visible"/>
	</clipPath>
	
		<linearGradient id="SVGID_63_" gradientUnits="userSpaceOnUse" x1="0" y1="174.6128" x2="1" y2="174.6128" gradientTransform="matrix(273.3483 0 0 -273.3483 9.5 47893.9492)">
		<stop  offset="0" style="stop-color:#E3DC25"/>
		<stop  offset="0.3703" style="stop-color:#F5D22F"/>
		<stop  offset="0.7579" style="stop-color:#D0A315"/>
		<stop  offset="1" style="stop-color:#D0860F"/>
	</linearGradient>
	<rect x="45.921" y="161.292" clip-path="url(#SVGID_62_)" fill="url(#SVGID_63_)" width="14.441" height="5.542"/>
</g>
<g>
	<defs>
		<polygon id="SVGID_64_" points="53.145,156.8 45.928,153.872 45.921,156.432 53.145,159.415 60.362,156.435 60.362,153.872 		"/>
	</defs>
	<clipPath id="SVGID_65_">
		<use xlink:href="#SVGID_64_"  overflow="visible"/>
	</clipPath>
	
		<linearGradient id="SVGID_66_" gradientUnits="userSpaceOnUse" x1="0" y1="174.6118" x2="1" y2="174.6118" gradientTransform="matrix(273.3483 0 0 -273.3483 9.5 47886.4492)">
		<stop  offset="0" style="stop-color:#E3DC25"/>
		<stop  offset="0.3703" style="stop-color:#F5D22F"/>
		<stop  offset="0.7579" style="stop-color:#D0A315"/>
		<stop  offset="1" style="stop-color:#D0860F"/>
	</linearGradient>
	<rect x="45.921" y="153.872" clip-path="url(#SVGID_65_)" fill="url(#SVGID_66_)" width="14.441" height="5.543"/>
</g>
</svg>
