<?xml version="1.0" encoding="utf-8"?>
<!-- Generator: Adobe Illustrator 16.0.0, SVG Export Plug-In . SVG Version: 6.00 Build 0)  -->
<!DOCTYPE svg PUBLIC "-//W3C//DTD SVG 1.1//EN" "http://www.w3.org/Graphics/SVG/1.1/DTD/svg11.dtd">
<svg version="1.1" id="圖層_1" xmlns="http://www.w3.org/2000/svg" xmlns:xlink="http://www.w3.org/1999/xlink" x="0px" y="0px"
	 width="52.018px" height="60px" viewBox="0 0 52.018 60" enable-background="new 0 0 52.018 60" xml:space="preserve">
<g>
	<defs>
		<polygon id="SVGID_1_" points="26.007,0 52.018,14.998 52.018,44.998 26.007,60 0,44.998 0,14.998 26.007,0 		"/>
	</defs>
	<defs>
		<path id="SVGID_2_" d="M21.443,19.723c0.348-0.352,1.885-0.352,2.229,0l10.222,10.354c0.344,0.352,0.274,1.838-0.07,2.189
			c-0.348,0.352-1.815,0.42-2.159,0.068L21.443,21.98C21.099,21.629,21.099,20.074,21.443,19.723L21.443,19.723z M21.443,39.588
			L31.665,29.23c0.344-0.348,1.812-0.277,2.159,0.074c0.344,0.348,0.414,1.838,0.07,2.186L23.672,41.846
			c-0.344,0.348-1.881,0.348-2.229,0C21.099,41.496,21.099,39.939,21.443,39.588L21.443,39.588z"/>
	</defs>
	<use xlink:href="#SVGID_1_"  overflow="visible" fill="#ECCD00"/>
	<use xlink:href="#SVGID_2_"  overflow="visible" fill="#FFFFFF"/>
	<clipPath id="SVGID_3_">
		<use xlink:href="#SVGID_1_"  overflow="visible"/>
	</clipPath>
	<clipPath id="SVGID_4_" clip-path="url(#SVGID_3_)">
		<use xlink:href="#SVGID_2_"  overflow="visible"/>
	</clipPath>
</g>
</svg>
