<?xml version="1.0" encoding="utf-8"?>
<!-- Generator: Adobe Illustrator 16.0.0, SVG Export Plug-In . SVG Version: 6.00 Build 0)  -->
<!DOCTYPE svg PUBLIC "-//W3C//DTD SVG 1.1//EN" "http://www.w3.org/Graphics/SVG/1.1/DTD/svg11.dtd">
<svg version="1.1" id="圖層_1" xmlns="http://www.w3.org/2000/svg" xmlns:xlink="http://www.w3.org/1999/xlink" x="0px" y="0px"
	 width="47.033px" height="54.31px" viewBox="0 0 47.033 54.31" enable-background="new 0 0 47.033 54.31" xml:space="preserve">
<g>
	<path fill="none" stroke="#000000" stroke-width="2" stroke-miterlimit="10" d="M23.517,1.155l22.517,13v26l-22.517,13L1,40.155
		v-26L23.517,1.155z"/>
</g>
<path d="M26.521,27.155l-6.984,10.664c-0.151,0.23-0.087,0.54,0.144,0.691c0.231,0.151,0.541,0.087,0.693-0.145l7.123-10.874
	c0.067-0.104,0.086-0.223,0.071-0.336c0.015-0.114-0.004-0.233-0.071-0.336l-7.123-10.875c-0.152-0.231-0.462-0.296-0.693-0.145
	c-0.23,0.151-0.295,0.461-0.144,0.692L26.521,27.155z"/>
</svg>
